<svg width="1871" height="1024" viewBox="0 0 1871 1024" fill="none" xmlns="http://www.w3.org/2000/svg">
<g filter="url(#filter0_d_589_73)">
<path d="M395.213 141.473H390.254V146.432H395.213V141.473Z" fill="#F9EB3D"/>
<path d="M390.245 146.432H385.285V151.391H390.245V146.432Z" fill="#F9EB3D"/>
<path d="M385.286 146.432H380.326V151.391H385.286V146.432Z" fill="#F9EB3D"/>
<path d="M400.172 141.473H395.213V146.432H400.172V141.473Z" fill="#F9EB3D"/>
<path d="M415.051 141.473H410.092V146.432H415.051V141.473Z" fill="#F9EB3D"/>
<path d="M420.01 146.432H415.051V151.391H420.01V146.432Z" fill="#F9EB3D"/>
<path d="M424.979 146.432H420.02V151.391H424.979V146.432Z" fill="#F9EB3D"/>
<path d="M415.051 201.006H410.092V205.965H415.051V201.006Z" fill="#F9EB3D"/>
<path d="M420.01 196.046H415.051V201.005H420.01V196.046Z" fill="#F9EB3D"/>
<path d="M424.979 196.046H420.02V201.005H424.979V196.046Z" fill="#F9EB3D"/>
<path d="M400.172 201.005H395.213V205.964H400.172V201.005Z" fill="#F9EB3D"/>
<path d="M405.133 141.473H400.174V146.432H405.133V141.473Z" fill="#F9EB3D"/>
<path d="M405.133 201.005H400.174V205.964H405.133V201.005Z" fill="#F9EB3D"/>
<path d="M410.09 141.473H405.131V146.432H410.09V141.473Z" fill="#F9EB3D"/>
<path d="M410.092 201.005H405.133V205.964H410.092V201.005Z" fill="#F9EB3D"/>
<path d="M400.172 186.127H395.213V191.087H400.172V186.127Z" fill="#F9EB3D"/>
<path d="M405.131 186.127H400.172V191.087H405.131V186.127Z" fill="#F9EB3D"/>
<path d="M410.092 186.127H405.133V191.087H410.092V186.127Z" fill="#F9EB3D"/>
<path d="M415.051 181.158H410.092V186.118H415.051V181.158Z" fill="#F9EB3D"/>
<path d="M395.213 181.158H390.254V186.118H395.213V181.158Z" fill="#F9EB3D"/>
<path d="M395.213 201.006H390.254V205.965H395.213V201.006Z" fill="#F9EB3D"/>
<path d="M390.245 196.046H385.285V201.005H390.245V196.046Z" fill="#F9EB3D"/>
<path d="M385.286 196.046H380.326V201.005H385.286V196.046Z" fill="#F9EB3D"/>
<path d="M375.366 181.157H370.406V186.117H375.366V181.157Z" fill="#F9EB3D"/>
<path d="M380.325 186.127H375.365V191.087H380.325V186.127Z" fill="#F9EB3D"/>
<path d="M380.325 191.086H375.365V196.045H380.325V191.086Z" fill="#F9EB3D"/>
<path d="M375.366 176.197H370.406V181.157H375.366V176.197Z" fill="#F9EB3D"/>
<path d="M375.366 161.319H370.406V166.279H375.366V161.319Z" fill="#F9EB3D"/>
<path d="M395.213 166.279H390.254V171.239H395.213V166.279Z" fill="#F9EB3D"/>
<path d="M415.051 166.279H410.092V171.239H415.051V166.279Z" fill="#F9EB3D"/>
<path d="M380.325 156.36H375.365V161.32H380.325V156.36Z" fill="#F9EB3D"/>
<path d="M380.325 151.392H375.365V156.351H380.325V151.392Z" fill="#F9EB3D"/>
<path d="M434.899 161.319H429.939V166.279H434.899V161.319Z" fill="#F9EB3D"/>
<path d="M429.94 156.36H424.98V161.32H429.94V156.36Z" fill="#F9EB3D"/>
<path d="M429.94 151.392H424.98V156.351H429.94V151.392Z" fill="#F9EB3D"/>
<path d="M434.899 176.198H429.939V181.158H434.899V176.198Z" fill="#F9EB3D"/>
<path d="M375.366 171.239H370.406V176.199H375.366V171.239Z" fill="#F9EB3D"/>
<path d="M434.899 171.239H429.939V176.199H434.899V171.239Z" fill="#F9EB3D"/>
<path d="M375.366 166.278H370.406V171.238H375.366V166.278Z" fill="#F9EB3D"/>
<path d="M434.897 166.279H429.938V171.239H434.897V166.279Z" fill="#F9EB3D"/>
<path d="M434.899 181.158H429.939V186.118H434.899V181.158Z" fill="#F9EB3D"/>
<path d="M429.94 186.127H424.98V191.087H429.94V186.127Z" fill="#F9EB3D"/>
<path d="M429.94 191.086H424.98V196.045H429.94V191.086Z" fill="#F9EB3D"/>
</g>
<g filter="url(#filter1_d_589_73)">
<path d="M1363.4 814.509H1356.78V821.121H1363.4V814.509Z" fill="#F9EB3D"/>
<path d="M1356.78 814.509H1350.17V821.121H1356.78V814.509Z" fill="#F9EB3D"/>
<path d="M1403.09 814.509H1396.47V821.121H1403.09V814.509Z" fill="#F9EB3D"/>
<path d="M1409.7 814.509H1403.08V821.121H1409.7V814.509Z" fill="#F9EB3D"/>
<path d="M1396.47 887.273H1389.86V893.886H1396.47V887.273Z" fill="#F9EB3D"/>
<path d="M1403.09 880.66H1396.47V887.273H1403.09V880.66Z" fill="#F9EB3D"/>
<path d="M1409.7 880.66H1403.08V887.273H1409.7V880.66Z" fill="#F9EB3D"/>
<path d="M1376.62 887.273H1370.01V893.886H1376.62V887.273Z" fill="#F9EB3D"/>
<path d="M1383.23 887.273H1376.62V893.886H1383.23V887.273Z" fill="#F9EB3D"/>
<path d="M1370.01 807.896H1363.4V814.509H1370.01V807.896Z" fill="#F9EB3D"/>
<path d="M1376.62 807.896H1370.01V814.509H1376.62V807.896Z" fill="#F9EB3D"/>
<path d="M1396.47 807.896H1389.86V814.509H1396.47V807.896Z" fill="#F9EB3D"/>
<path d="M1383.23 807.896H1376.62V814.509H1383.23V807.896Z" fill="#F9EB3D"/>
<path d="M1389.85 807.896H1383.23V814.509H1389.85V807.896Z" fill="#F9EB3D"/>
<path d="M1389.85 887.273H1383.23V893.886H1389.85V887.273Z" fill="#F9EB3D"/>
<path d="M1389.85 867.434H1383.23V874.046H1389.85V867.434Z" fill="#F9EB3D"/>
<path d="M1383.23 860.81H1376.62V867.422H1383.23V860.81Z" fill="#F9EB3D"/>
<path d="M1376.62 860.81H1370.01V867.422H1376.62V860.81Z" fill="#F9EB3D"/>
<path d="M1370.01 860.81H1363.4V867.422H1370.01V860.81Z" fill="#F9EB3D"/>
<path d="M1396.47 860.81H1389.86V867.422H1396.47V860.81Z" fill="#F9EB3D"/>
<path d="M1370.01 887.273H1363.4V893.886H1370.01V887.273Z" fill="#F9EB3D"/>
<path d="M1363.4 880.66H1356.78V887.273H1363.4V880.66Z" fill="#F9EB3D"/>
<path d="M1356.78 880.66H1350.17V887.273H1356.78V880.66Z" fill="#F9EB3D"/>
<path d="M1343.55 860.81H1336.93V867.422H1343.55V860.81Z" fill="#F9EB3D"/>
<path d="M1350.16 867.434H1343.55V874.046H1350.16V867.434Z" fill="#F9EB3D"/>
<path d="M1350.16 874.047H1343.55V880.66H1350.16V874.047Z" fill="#F9EB3D"/>
<path d="M1343.55 854.197H1336.93V860.81H1343.55V854.197Z" fill="#F9EB3D"/>
<path d="M1343.55 834.36H1336.93V840.973H1343.55V834.36Z" fill="#F9EB3D"/>
<path d="M1370.01 840.972H1363.4V847.584H1370.01V840.972Z" fill="#F9EB3D"/>
<path d="M1396.47 840.972H1389.86V847.584H1396.47V840.972Z" fill="#F9EB3D"/>
<path d="M1350.16 827.746H1343.55V834.359H1350.16V827.746Z" fill="#F9EB3D"/>
<path d="M1350.16 821.122H1343.55V827.735H1350.16V821.122Z" fill="#F9EB3D"/>
<path d="M1422.92 834.36H1416.31V840.973H1422.92V834.36Z" fill="#F9EB3D"/>
<path d="M1416.31 827.746H1409.7V834.359H1416.31V827.746Z" fill="#F9EB3D"/>
<path d="M1416.31 821.122H1409.7V827.735H1416.31V821.122Z" fill="#F9EB3D"/>
<path d="M1422.92 854.197H1416.31V860.81H1422.92V854.197Z" fill="#F9EB3D"/>
<path d="M1343.55 847.584H1336.93V854.197H1343.55V847.584Z" fill="#F9EB3D"/>
<path d="M1422.92 847.584H1416.31V854.197H1422.92V847.584Z" fill="#F9EB3D"/>
<path d="M1343.55 840.972H1336.93V847.584H1343.55V840.972Z" fill="#F9EB3D"/>
<path d="M1422.92 840.972H1416.31V847.584H1422.92V840.972Z" fill="#F9EB3D"/>
<path d="M1422.92 860.81H1416.31V867.422H1422.92V860.81Z" fill="#F9EB3D"/>
<path d="M1416.31 867.434H1409.7V874.046H1416.31V867.434Z" fill="#F9EB3D"/>
<path d="M1416.31 874.047H1409.7V880.66H1416.31V874.047Z" fill="#F9EB3D"/>
</g>
<g filter="url(#filter2_d_589_73)">
<path d="M1286.59 86.9678H1282.62V90.9354H1286.59V86.9678Z" fill="#F9EB3D"/>
<path d="M1282.62 86.9678H1278.66V90.9354H1282.62V86.9678Z" fill="#F9EB3D"/>
<path d="M1310.41 86.9678H1306.44V90.9354H1310.41V86.9678Z" fill="#F9EB3D"/>
<path d="M1314.38 86.9678H1310.41V90.9354H1314.38V86.9678Z" fill="#F9EB3D"/>
<path d="M1306.44 130.626H1302.47V134.594H1306.44V130.626Z" fill="#F9EB3D"/>
<path d="M1310.41 126.658H1306.44V130.626H1310.41V126.658Z" fill="#F9EB3D"/>
<path d="M1314.38 126.658H1310.41V130.626H1314.38V126.658Z" fill="#F9EB3D"/>
<path d="M1294.53 130.626H1290.57V134.594H1294.53V130.626Z" fill="#F9EB3D"/>
<path d="M1298.5 130.626H1294.53V134.594H1298.5V130.626Z" fill="#F9EB3D"/>
<path d="M1290.57 83H1286.6V86.9677H1290.57V83Z" fill="#F9EB3D"/>
<path d="M1294.53 83H1290.56V86.9677H1294.53V83Z" fill="#F9EB3D"/>
<path d="M1306.44 83H1302.47V86.9677H1306.44V83Z" fill="#F9EB3D"/>
<path d="M1298.5 83H1294.53V86.9677H1298.5V83Z" fill="#F9EB3D"/>
<path d="M1302.47 83H1298.5V86.9677H1302.47V83Z" fill="#F9EB3D"/>
<path d="M1302.47 130.626H1298.5V134.594H1302.47V130.626Z" fill="#F9EB3D"/>
<path d="M1298.5 114.748H1294.53V118.716H1298.5V114.748Z" fill="#F9EB3D"/>
<path d="M1294.53 114.748H1290.56V118.716H1294.53V114.748Z" fill="#F9EB3D"/>
<path d="M1302.47 114.748H1298.5V118.716H1302.47V114.748Z" fill="#F9EB3D"/>
<path d="M1306.44 118.723H1302.47V122.69H1306.44V118.723Z" fill="#F9EB3D"/>
<path d="M1290.57 118.723H1286.6V122.69H1290.57V118.723Z" fill="#F9EB3D"/>
<path d="M1290.57 130.626H1286.6V134.594H1290.57V130.626Z" fill="#F9EB3D"/>
<path d="M1286.59 126.658H1282.62V130.626H1286.59V126.658Z" fill="#F9EB3D"/>
<path d="M1282.62 126.658H1278.66V130.626H1282.62V126.658Z" fill="#F9EB3D"/>
<path d="M1274.69 114.748H1270.72V118.716H1274.69V114.748Z" fill="#F9EB3D"/>
<path d="M1278.66 118.723H1274.69V122.69H1278.66V118.723Z" fill="#F9EB3D"/>
<path d="M1278.66 122.69H1274.69V126.658H1278.66V122.69Z" fill="#F9EB3D"/>
<path d="M1274.69 110.78H1270.72V114.748H1274.69V110.78Z" fill="#F9EB3D"/>
<path d="M1274.69 98.877H1270.72V102.845H1274.69V98.877Z" fill="#F9EB3D"/>
<path d="M1290.57 102.845H1286.6V106.812H1290.57V102.845Z" fill="#F9EB3D"/>
<path d="M1294.53 98.877H1290.57V102.845H1294.53V98.877Z" fill="#F9EB3D"/>
<path d="M1286.59 98.877H1282.62V102.845H1286.59V98.877Z" fill="#F9EB3D"/>
<path d="M1306.44 102.845H1302.47V106.812H1306.44V102.845Z" fill="#F9EB3D"/>
<path d="M1302.47 98.877H1298.5V102.845H1302.47V98.877Z" fill="#F9EB3D"/>
<path d="M1310.41 98.877H1306.44V102.845H1310.41V98.877Z" fill="#F9EB3D"/>
<path d="M1278.66 94.9092H1274.69V98.8768H1278.66V94.9092Z" fill="#F9EB3D"/>
<path d="M1278.66 90.9355H1274.69V94.9032H1278.66V90.9355Z" fill="#F9EB3D"/>
<path d="M1322.31 98.877H1318.35V102.845H1322.31V98.877Z" fill="#F9EB3D"/>
<path d="M1318.35 94.9092H1314.38V98.8768H1318.35V94.9092Z" fill="#F9EB3D"/>
<path d="M1318.35 90.9355H1314.38V94.9032H1318.35V90.9355Z" fill="#F9EB3D"/>
<path d="M1322.31 110.78H1318.35V114.748H1322.31V110.78Z" fill="#F9EB3D"/>
<path d="M1274.69 106.812H1270.72V110.78H1274.69V106.812Z" fill="#F9EB3D"/>
<path d="M1322.31 106.812H1318.35V110.78H1322.31V106.812Z" fill="#F9EB3D"/>
<path d="M1274.69 102.845H1270.72V106.812H1274.69V102.845Z" fill="#F9EB3D"/>
<path d="M1322.31 102.845H1318.35V106.812H1322.31V102.845Z" fill="#F9EB3D"/>
<path d="M1322.31 114.748H1318.35V118.716H1322.31V114.748Z" fill="#F9EB3D"/>
<path d="M1318.35 118.723H1314.38V122.69H1318.35V118.723Z" fill="#F9EB3D"/>
<path d="M1318.35 122.69H1314.38V126.658H1318.35V122.69Z" fill="#F9EB3D"/>
</g>
<g filter="url(#filter3_d_589_73)">
<path d="M259.878 699.217H255.91V703.184H259.878V699.217Z" fill="#F9EB3D"/>
<path d="M255.911 699.217H251.943V703.184H255.911V699.217Z" fill="#F9EB3D"/>
<path d="M283.69 699.217H279.723V703.184H283.69V699.217Z" fill="#F9EB3D"/>
<path d="M287.657 699.217H283.689V703.184H287.657V699.217Z" fill="#F9EB3D"/>
<path d="M279.722 742.875H275.754V746.843H279.722V742.875Z" fill="#F9EB3D"/>
<path d="M283.69 738.907H279.723V742.875H283.69V738.907Z" fill="#F9EB3D"/>
<path d="M287.657 738.907H283.689V742.875H287.657V738.907Z" fill="#F9EB3D"/>
<path d="M267.813 742.875H263.846V746.843H267.813V742.875Z" fill="#F9EB3D"/>
<path d="M271.788 742.875H267.82V746.843H271.788V742.875Z" fill="#F9EB3D"/>
<path d="M263.845 695.249H259.877V699.217H263.845V695.249Z" fill="#F9EB3D"/>
<path d="M267.811 695.249H263.844V699.217H267.811V695.249Z" fill="#F9EB3D"/>
<path d="M279.722 695.249H275.754V699.217H279.722V695.249Z" fill="#F9EB3D"/>
<path d="M271.788 695.249H267.82V699.217H271.788V695.249Z" fill="#F9EB3D"/>
<path d="M275.755 695.249H271.787V699.217H275.755V695.249Z" fill="#F9EB3D"/>
<path d="M275.755 742.875H271.787V746.843H275.755V742.875Z" fill="#F9EB3D"/>
<path d="M269.8 734.939H265.832V738.907H269.8V734.939Z" fill="#F9EB3D"/>
<path d="M265.833 730.973H261.865V734.94H265.833V730.973Z" fill="#F9EB3D"/>
<path d="M265.833 726.998H261.865V730.966H265.833V726.998Z" fill="#F9EB3D"/>
<path d="M273.768 734.939H269.801V738.907H273.768V734.939Z" fill="#F9EB3D"/>
<path d="M277.735 730.973H273.768V734.94H277.735V730.973Z" fill="#F9EB3D"/>
<path d="M269.8 723.03H265.832V726.998H269.8V723.03Z" fill="#F9EB3D"/>
<path d="M273.768 723.03H269.801V726.998H273.768V723.03Z" fill="#F9EB3D"/>
<path d="M277.735 726.998H273.768V730.966H277.735V726.998Z" fill="#F9EB3D"/>
<path d="M263.845 742.875H259.877V746.843H263.845V742.875Z" fill="#F9EB3D"/>
<path d="M259.878 738.907H255.91V742.875H259.878V738.907Z" fill="#F9EB3D"/>
<path d="M255.911 738.907H251.943V742.875H255.911V738.907Z" fill="#F9EB3D"/>
<path d="M247.968 726.997H244V730.965H247.968V726.997Z" fill="#F9EB3D"/>
<path d="M251.942 730.973H247.975V734.94H251.942V730.973Z" fill="#F9EB3D"/>
<path d="M251.942 734.939H247.975V738.907H251.942V734.939Z" fill="#F9EB3D"/>
<path d="M247.968 723.03H244V726.998H247.968V723.03Z" fill="#F9EB3D"/>
<path d="M247.968 711.127H244V715.095H247.968V711.127Z" fill="#F9EB3D"/>
<path d="M263.845 715.095H259.877V719.062H263.845V715.095Z" fill="#F9EB3D"/>
<path d="M279.722 715.095H275.754V719.062H279.722V715.095Z" fill="#F9EB3D"/>
<path d="M251.942 707.159H247.975V711.127H251.942V707.159Z" fill="#F9EB3D"/>
<path d="M251.942 703.185H247.975V707.152H251.942V703.185Z" fill="#F9EB3D"/>
<path d="M295.6 711.127H291.633V715.095H295.6V711.127Z" fill="#F9EB3D"/>
<path d="M291.626 707.159H287.658V711.127H291.626V707.159Z" fill="#F9EB3D"/>
<path d="M291.626 703.185H287.658V707.152H291.626V703.185Z" fill="#F9EB3D"/>
<path d="M295.6 723.03H291.633V726.998H295.6V723.03Z" fill="#F9EB3D"/>
<path d="M247.968 719.062H244V723.03H247.968V719.062Z" fill="#F9EB3D"/>
<path d="M295.6 719.062H291.633V723.03H295.6V719.062Z" fill="#F9EB3D"/>
<path d="M247.968 715.095H244V719.062H247.968V715.095Z" fill="#F9EB3D"/>
<path d="M295.6 715.095H291.633V719.062H295.6V715.095Z" fill="#F9EB3D"/>
<path d="M295.6 726.997H291.633V730.965H295.6V726.997Z" fill="#F9EB3D"/>
<path d="M291.626 730.973H287.658V734.94H291.626V730.973Z" fill="#F9EB3D"/>
<path d="M291.626 734.939H287.658V738.907H291.626V734.939Z" fill="#F9EB3D"/>
</g>
<g filter="url(#filter4_d_589_73)">
<path d="M618.581 877.679H613.291V882.969H618.581V877.679Z" fill="#F9EB3D"/>
<path d="M613.29 877.679H608V882.969H613.29V877.679Z" fill="#F9EB3D"/>
<path d="M650.331 877.679H645.041V882.969H650.331V877.679Z" fill="#F9EB3D"/>
<path d="M655.622 877.679H650.332V882.969H655.622V877.679Z" fill="#F9EB3D"/>
<path d="M645.042 935.891H639.752V941.181H645.042V935.891Z" fill="#F9EB3D"/>
<path d="M650.331 930.6H645.041V935.89H650.331V930.6Z" fill="#F9EB3D"/>
<path d="M655.622 930.6H650.332V935.89H655.622V930.6Z" fill="#F9EB3D"/>
<path d="M629.171 935.891H623.881V941.181H629.171V935.891Z" fill="#F9EB3D"/>
<path d="M634.462 935.891H629.172V941.181H634.462V935.891Z" fill="#F9EB3D"/>
<path d="M623.872 872.389H618.582V877.679H623.872V872.389Z" fill="#F9EB3D"/>
<path d="M629.171 872.389H623.881V877.679H629.171V872.389Z" fill="#F9EB3D"/>
<path d="M645.042 872.389H639.752V877.679H645.042V872.389Z" fill="#F9EB3D"/>
<path d="M634.462 872.389H629.172V877.679H634.462V872.389Z" fill="#F9EB3D"/>
<path d="M639.751 872.389H634.461V877.679H639.751V872.389Z" fill="#F9EB3D"/>
<path d="M623.872 920.019H618.582V925.309H623.872V920.019Z" fill="#F9EB3D"/>
<path d="M629.171 920.019H623.881V925.309H629.171V920.019Z" fill="#F9EB3D"/>
<path d="M645.042 920.019H639.752V925.309H645.042V920.019Z" fill="#F9EB3D"/>
<path d="M634.462 920.019H629.172V925.309H634.462V920.019Z" fill="#F9EB3D"/>
<path d="M639.751 920.019H634.461V925.309H639.751V920.019Z" fill="#F9EB3D"/>
<path d="M639.751 935.891H634.461V941.181H639.751V935.891Z" fill="#F9EB3D"/>
<path d="M623.872 935.891H618.582V941.181H623.872V935.891Z" fill="#F9EB3D"/>
<path d="M618.581 930.6H613.291V935.89H618.581V930.6Z" fill="#F9EB3D"/>
<path d="M613.29 930.6H608V935.89H613.29V930.6Z" fill="#F9EB3D"/>
<path d="M602.71 914.72H597.42V920.01H602.71V914.72Z" fill="#F9EB3D"/>
<path d="M608.001 920.019H602.711V925.309H608.001V920.019Z" fill="#F9EB3D"/>
<path d="M608.001 925.309H602.711V930.599H608.001V925.309Z" fill="#F9EB3D"/>
<path d="M602.71 909.43H597.42V914.72H602.71V909.43Z" fill="#F9EB3D"/>
<path d="M602.71 893.56H597.42V898.85H602.71V893.56Z" fill="#F9EB3D"/>
<path d="M623.872 898.849H618.582V904.139H623.872V898.849Z" fill="#F9EB3D"/>
<path d="M623.872 904.139H618.582V909.429H623.872V904.139Z" fill="#F9EB3D"/>
<path d="M645.042 898.849H639.752V904.139H645.042V898.849Z" fill="#F9EB3D"/>
<path d="M645.042 904.139H639.752V909.429H645.042V904.139Z" fill="#F9EB3D"/>
<path d="M608.001 888.269H602.711V893.559H608.001V888.269Z" fill="#F9EB3D"/>
<path d="M608.001 882.97H602.711V888.26H608.001V882.97Z" fill="#F9EB3D"/>
<path d="M666.212 893.56H660.922V898.85H666.212V893.56Z" fill="#F9EB3D"/>
<path d="M660.921 888.269H655.631V893.559H660.921V888.269Z" fill="#F9EB3D"/>
<path d="M660.921 882.97H655.631V888.26H660.921V882.97Z" fill="#F9EB3D"/>
<path d="M666.212 909.43H660.922V914.72H666.212V909.43Z" fill="#F9EB3D"/>
<path d="M602.71 904.139H597.42V909.429H602.71V904.139Z" fill="#F9EB3D"/>
<path d="M666.212 904.139H660.922V909.429H666.212V904.139Z" fill="#F9EB3D"/>
<path d="M602.71 898.849H597.42V904.139H602.71V898.849Z" fill="#F9EB3D"/>
<path d="M666.212 898.849H660.922V904.139H666.212V898.849Z" fill="#F9EB3D"/>
<path d="M666.212 914.72H660.922V920.01H666.212V914.72Z" fill="#F9EB3D"/>
<path d="M660.921 920.019H655.631V925.309H660.921V920.019Z" fill="#F9EB3D"/>
<path d="M660.921 925.309H655.631V930.599H660.921V925.309Z" fill="#F9EB3D"/>
</g>
<g filter="url(#filter5_d_589_73)">
<path d="M1607.8 335.812H1603.5V340.111H1607.8V335.812Z" fill="#F9EB3D"/>
<path d="M1612.1 331.514H1607.81V335.812H1612.1V331.514Z" fill="#F9EB3D"/>
<path d="M1616.4 331.514H1612.11V335.812H1616.4V331.514Z" fill="#F9EB3D"/>
<path d="M1594.91 335.812H1590.61V340.111H1594.91V335.812Z" fill="#F9EB3D"/>
<path d="M1599.2 335.812H1594.9V340.111H1599.2V335.812Z" fill="#F9EB3D"/>
<path d="M1603.5 335.812H1599.2V340.111H1603.5V335.812Z" fill="#F9EB3D"/>
<path d="M1597.06 319.433H1592.76V323.731H1597.06V319.433Z" fill="#F9EB3D"/>
<path d="M1601.35 319.433H1597.06V323.731H1601.35V319.433Z" fill="#F9EB3D"/>
<path d="M1605.65 323.73H1601.36V328.029H1605.65V323.73Z" fill="#F9EB3D"/>
<path d="M1592.75 323.73H1588.45V328.029H1592.75V323.73Z" fill="#F9EB3D"/>
<path d="M1590.61 335.812H1586.31V340.111H1590.61V335.812Z" fill="#F9EB3D"/>
<path d="M1586.31 331.514H1582.01V335.812H1586.31V331.514Z" fill="#F9EB3D"/>
<path d="M1582 331.514H1577.71V335.812H1582V331.514Z" fill="#F9EB3D"/>
<path d="M1573.41 318.611H1569.11V322.91H1573.41V318.611Z" fill="#F9EB3D"/>
<path d="M1577.7 322.917H1573.41V327.215H1577.7V322.917Z" fill="#F9EB3D"/>
<path d="M1577.7 327.215H1573.41V331.513H1577.7V327.215Z" fill="#F9EB3D"/>
<path d="M1573.41 314.313H1569.11V318.612H1573.41V314.313Z" fill="#F9EB3D"/>
<path d="M1573.41 301.418H1569.11V305.716H1573.41V301.418Z" fill="#F9EB3D"/>
<path d="M1590.61 305.716H1586.31V310.014H1590.61V305.716Z" fill="#F9EB3D"/>
<path d="M1586.31 305.716H1582.01V310.014H1586.31V305.716Z" fill="#F9EB3D"/>
<path d="M1607.8 305.716H1603.5V310.014H1607.8V305.716Z" fill="#F9EB3D"/>
<path d="M1612.1 305.716H1607.81V310.014H1612.1V305.716Z" fill="#F9EB3D"/>
<path d="M1625 301.418H1620.7V305.716H1625V301.418Z" fill="#F9EB3D"/>
<path d="M1590.61 284.217H1586.31V288.515H1590.61V284.217Z" fill="#F9EB3D"/>
<path d="M1586.31 288.516H1582.01V292.814H1586.31V288.516Z" fill="#F9EB3D"/>
<path d="M1582 288.516H1577.71V292.814H1582V288.516Z" fill="#F9EB3D"/>
<path d="M1594.91 284.217H1590.61V288.515H1594.91V284.217Z" fill="#F9EB3D"/>
<path d="M1607.8 284.217H1603.5V288.515H1607.8V284.217Z" fill="#F9EB3D"/>
<path d="M1612.1 288.516H1607.81V292.814H1612.1V288.516Z" fill="#F9EB3D"/>
<path d="M1616.4 288.516H1612.11V292.814H1616.4V288.516Z" fill="#F9EB3D"/>
<path d="M1599.2 284.217H1594.91V288.515H1599.2V284.217Z" fill="#F9EB3D"/>
<path d="M1603.5 284.217H1599.2V288.515H1603.5V284.217Z" fill="#F9EB3D"/>
<path d="M1577.7 297.119H1573.41V301.417H1577.7V297.119Z" fill="#F9EB3D"/>
<path d="M1577.7 292.813H1573.41V297.112H1577.7V292.813Z" fill="#F9EB3D"/>
<path d="M1620.7 297.119H1616.4V301.417H1620.7V297.119Z" fill="#F9EB3D"/>
<path d="M1620.7 292.813H1616.4V297.112H1620.7V292.813Z" fill="#F9EB3D"/>
<path d="M1625 314.313H1620.7V318.612H1625V314.313Z" fill="#F9EB3D"/>
<path d="M1573.41 310.015H1569.11V314.313H1573.41V310.015Z" fill="#F9EB3D"/>
<path d="M1625 310.015H1620.7V314.313H1625V310.015Z" fill="#F9EB3D"/>
<path d="M1573.41 305.716H1569.11V310.014H1573.41V305.716Z" fill="#F9EB3D"/>
<path d="M1625 305.716H1620.7V310.014H1625V305.716Z" fill="#F9EB3D"/>
<path d="M1625 318.611H1620.7V322.91H1625V318.611Z" fill="#F9EB3D"/>
<path d="M1620.7 322.917H1616.4V327.215H1620.7V322.917Z" fill="#F9EB3D"/>
<path d="M1620.7 327.215H1616.4V331.513H1620.7V327.215Z" fill="#F9EB3D"/>
</g>
<defs>
<filter id="filter0_d_589_73" x="306.406" y="77.4727" width="192.492" height="192.493" filterUnits="userSpaceOnUse" color-interpolation-filters="sRGB">
<feFlood flood-opacity="0" result="BackgroundImageFix"/>
<feColorMatrix in="SourceAlpha" type="matrix" values="0 0 0 0 0 0 0 0 0 0 0 0 0 0 0 0 0 0 127 0" result="hardAlpha"/>
<feOffset/>
<feGaussianBlur stdDeviation="32"/>
<feComposite in2="hardAlpha" operator="out"/>
<feColorMatrix type="matrix" values="0 0 0 0 0.966667 0 0 0 0 1 0 0 0 0 0 0 0 0 0.5 0"/>
<feBlend mode="normal" in2="BackgroundImageFix" result="effect1_dropShadow_589_73"/>
<feBlend mode="normal" in="SourceGraphic" in2="effect1_dropShadow_589_73" result="shape"/>
</filter>
<filter id="filter1_d_589_73" x="1272.93" y="743.896" width="213.988" height="213.989" filterUnits="userSpaceOnUse" color-interpolation-filters="sRGB">
<feFlood flood-opacity="0" result="BackgroundImageFix"/>
<feColorMatrix in="SourceAlpha" type="matrix" values="0 0 0 0 0 0 0 0 0 0 0 0 0 0 0 0 0 0 127 0" result="hardAlpha"/>
<feOffset/>
<feGaussianBlur stdDeviation="32"/>
<feComposite in2="hardAlpha" operator="out"/>
<feColorMatrix type="matrix" values="0 0 0 0 0.966667 0 0 0 0 1 0 0 0 0 0 0 0 0 0.5 0"/>
<feBlend mode="normal" in2="BackgroundImageFix" result="effect1_dropShadow_589_73"/>
<feBlend mode="normal" in="SourceGraphic" in2="effect1_dropShadow_589_73" result="shape"/>
</filter>
<filter id="filter2_d_589_73" x="1206.72" y="19" width="179.592" height="179.594" filterUnits="userSpaceOnUse" color-interpolation-filters="sRGB">
<feFlood flood-opacity="0" result="BackgroundImageFix"/>
<feColorMatrix in="SourceAlpha" type="matrix" values="0 0 0 0 0 0 0 0 0 0 0 0 0 0 0 0 0 0 127 0" result="hardAlpha"/>
<feOffset/>
<feGaussianBlur stdDeviation="32"/>
<feComposite in2="hardAlpha" operator="out"/>
<feColorMatrix type="matrix" values="0 0 0 0 0.966667 0 0 0 0 1 0 0 0 0 0 0 0 0 0.5 0"/>
<feBlend mode="normal" in2="BackgroundImageFix" result="effect1_dropShadow_589_73"/>
<feBlend mode="normal" in="SourceGraphic" in2="effect1_dropShadow_589_73" result="shape"/>
</filter>
<filter id="filter3_d_589_73" x="180" y="631.249" width="179.6" height="179.594" filterUnits="userSpaceOnUse" color-interpolation-filters="sRGB">
<feFlood flood-opacity="0" result="BackgroundImageFix"/>
<feColorMatrix in="SourceAlpha" type="matrix" values="0 0 0 0 0 0 0 0 0 0 0 0 0 0 0 0 0 0 127 0" result="hardAlpha"/>
<feOffset/>
<feGaussianBlur stdDeviation="32"/>
<feComposite in2="hardAlpha" operator="out"/>
<feColorMatrix type="matrix" values="0 0 0 0 0.966667 0 0 0 0 1 0 0 0 0 0 0 0 0 0.5 0"/>
<feBlend mode="normal" in2="BackgroundImageFix" result="effect1_dropShadow_589_73"/>
<feBlend mode="normal" in="SourceGraphic" in2="effect1_dropShadow_589_73" result="shape"/>
</filter>
<filter id="filter4_d_589_73" x="533.42" y="808.389" width="196.793" height="196.792" filterUnits="userSpaceOnUse" color-interpolation-filters="sRGB">
<feFlood flood-opacity="0" result="BackgroundImageFix"/>
<feColorMatrix in="SourceAlpha" type="matrix" values="0 0 0 0 0 0 0 0 0 0 0 0 0 0 0 0 0 0 127 0" result="hardAlpha"/>
<feOffset/>
<feGaussianBlur stdDeviation="32"/>
<feComposite in2="hardAlpha" operator="out"/>
<feColorMatrix type="matrix" values="0 0 0 0 0.966667 0 0 0 0 1 0 0 0 0 0 0 0 0 0.5 0"/>
<feBlend mode="normal" in2="BackgroundImageFix" result="effect1_dropShadow_589_73"/>
<feBlend mode="normal" in="SourceGraphic" in2="effect1_dropShadow_589_73" result="shape"/>
</filter>
<filter id="filter5_d_589_73" x="1505.11" y="220.217" width="183.895" height="183.894" filterUnits="userSpaceOnUse" color-interpolation-filters="sRGB">
<feFlood flood-opacity="0" result="BackgroundImageFix"/>
<feColorMatrix in="SourceAlpha" type="matrix" values="0 0 0 0 0 0 0 0 0 0 0 0 0 0 0 0 0 0 127 0" result="hardAlpha"/>
<feOffset/>
<feGaussianBlur stdDeviation="32"/>
<feComposite in2="hardAlpha" operator="out"/>
<feColorMatrix type="matrix" values="0 0 0 0 0.966667 0 0 0 0 1 0 0 0 0 0 0 0 0 0.5 0"/>
<feBlend mode="normal" in2="BackgroundImageFix" result="effect1_dropShadow_589_73"/>
<feBlend mode="normal" in="SourceGraphic" in2="effect1_dropShadow_589_73" result="shape"/>
</filter>
</defs>
</svg>
