<svg width="1871" height="1024" viewBox="0 0 1871 1024" fill="none" xmlns="http://www.w3.org/2000/svg">
<rect width="1871" height="1024" fill="url(#paint0_linear_314_1044)"/>
<g filter="url(#filter0_d_314_1044)">
<path d="M1788.35 571.27H1778.48V581.137H1788.35V571.27Z" fill="white"/>
<path d="M1778.48 581.137H1768.62V591.004H1778.48V581.137Z" fill="white"/>
<path d="M1768.6 591.02H1758.73V600.887H1768.6V591.02Z" fill="white"/>
<path d="M1758.73 581.137H1748.87V591.004H1758.73V581.137Z" fill="white"/>
<path d="M1748.87 571.27H1739V581.137H1748.87V571.27Z" fill="white"/>
<path d="M1788.35 521.842H1778.48V531.709H1788.35V521.842Z" fill="white"/>
<path d="M1778.48 531.709H1768.62V541.576H1778.48V531.709Z" fill="white"/>
<path d="M1768.6 541.592H1758.73V551.459H1768.6V541.592Z" fill="white"/>
<path d="M1758.73 531.709H1748.87V541.576H1758.73V531.709Z" fill="white"/>
<path d="M1748.87 521.842H1739V531.709H1748.87V521.842Z" fill="white"/>
<path d="M1788.35 472.413H1778.48V482.28H1788.35V472.413Z" fill="white"/>
<path d="M1778.48 482.296H1768.62V492.163H1778.48V482.296Z" fill="white"/>
<path d="M1768.6 492.163H1758.73V502.03H1768.6V492.163Z" fill="white"/>
<path d="M1758.73 482.296H1748.87V492.163H1758.73V482.296Z" fill="white"/>
<path d="M1748.87 472.413H1739V482.28H1748.87V472.413Z" fill="white"/>
<path d="M1788.35 423H1778.48V432.867H1788.35V423Z" fill="white"/>
<path d="M1778.48 432.867H1768.62V442.735H1778.48V432.867Z" fill="white"/>
<path d="M1768.6 442.75H1758.73V452.617H1768.6V442.75Z" fill="white"/>
<path d="M1758.73 432.867H1748.87V442.735H1758.73V432.867Z" fill="white"/>
<path d="M1748.87 423H1739V432.867H1748.87V423Z" fill="white"/>
</g>
<defs>
<filter id="filter0_d_314_1044" x="1707" y="391" width="113.352" height="241.887" filterUnits="userSpaceOnUse" color-interpolation-filters="sRGB">
<feFlood flood-opacity="0" result="BackgroundImageFix"/>
<feColorMatrix in="SourceAlpha" type="matrix" values="0 0 0 0 0 0 0 0 0 0 0 0 0 0 0 0 0 0 127 0" result="hardAlpha"/>
<feOffset/>
<feGaussianBlur stdDeviation="16"/>
<feComposite in2="hardAlpha" operator="out"/>
<feColorMatrix type="matrix" values="0 0 0 0 1 0 0 0 0 1 0 0 0 0 1 0 0 0 0.75 0"/>
<feBlend mode="normal" in2="BackgroundImageFix" result="effect1_dropShadow_314_1044"/>
<feBlend mode="normal" in="SourceGraphic" in2="effect1_dropShadow_314_1044" result="shape"/>
</filter>
<linearGradient id="paint0_linear_314_1044" x1="935.5" y1="0" x2="935.5" y2="1024" gradientUnits="userSpaceOnUse">
<stop stop-color="#6D1146"/>
<stop offset="1" stop-color="#351C4D"/>
</linearGradient>
</defs>
</svg>
